<svg width="30" height="30" viewBox="0 0 30 30" fill="none" xmlns="http://www.w3.org/2000/svg">
<path fill-rule="evenodd" clip-rule="evenodd" d="M15 10C16.1046 10 17 9.10457 17 8C17 6.89543 16.1046 6 15 6C13.8954 6 13 6.89543 13 8C13 9.10457 13.8954 10 15 10ZM15 17C16.1046 17 17 16.1046 17 15C17 13.8954 16.1046 13 15 13C13.8954 13 13 13.8954 13 15C13 16.1046 13.8954 17 15 17ZM17 22C17 23.1046 16.1046 24 15 24C13.8954 24 13 23.1046 13 22C13 20.8954 13.8954 20 15 20C16.1046 20 17 20.8954 17 22Z" fill="black"/>
<mask id="mask0_14788_14402" style="mask-type:alpha" maskUnits="userSpaceOnUse" x="13" y="6" width="4" height="18">
<path fill-rule="evenodd" clip-rule="evenodd" d="M15 10C16.1046 10 17 9.10457 17 8C17 6.89543 16.1046 6 15 6C13.8954 6 13 6.89543 13 8C13 9.10457 13.8954 10 15 10ZM15 17C16.1046 17 17 16.1046 17 15C17 13.8954 16.1046 13 15 13C13.8954 13 13 13.8954 13 15C13 16.1046 13.8954 17 15 17ZM17 22C17 23.1046 16.1046 24 15 24C13.8954 24 13 23.1046 13 22C13 20.8954 13.8954 20 15 20C16.1046 20 17 20.8954 17 22Z" fill="white"/>
</mask>
<g mask="url(#mask0_14788_14402)">
<rect width="30" height="30" fill="white"/>
</g>
</svg>
