<svg width="23" height="23" viewBox="0 0 23 23" fill="none" xmlns="http://www.w3.org/2000/svg">
<path fill-rule="evenodd" clip-rule="evenodd" d="M11.4995 3.06641C13.6166 3.06641 15.3329 4.78265 15.3329 6.89974V7.66641H16.0995C16.9464 7.66641 17.6329 8.3529 17.6329 9.19974V18.3997C17.6329 19.2466 16.9464 19.9331 16.0995 19.9331H6.89954C6.05271 19.9331 5.36621 19.2466 5.36621 18.3997V9.19974C5.36621 8.3529 6.05271 7.66641 6.89954 7.66641H7.66621V6.89974C7.66621 4.78265 9.38245 3.06641 11.4995 3.06641ZM6.89954 9.19974H7.66621H15.3329H16.0995V15.3331H6.89954V9.19974ZM6.89954 16.8664V18.3997H16.0995V16.8664H6.89954ZM13.7995 6.89974V7.66641H9.19954V6.89974C9.19954 5.62948 10.2293 4.59974 11.4995 4.59974C12.7698 4.59974 13.7995 5.62948 13.7995 6.89974Z" fill="black"/>
<mask id="mask0_14788_14403" style="mask-type:alpha" maskUnits="userSpaceOnUse" x="5" y="3" width="13" height="17">
<path fill-rule="evenodd" clip-rule="evenodd" d="M11.4995 3.06641C13.6166 3.06641 15.3329 4.78265 15.3329 6.89974V7.66641H16.0995C16.9464 7.66641 17.6329 8.3529 17.6329 9.19974V18.3997C17.6329 19.2466 16.9464 19.9331 16.0995 19.9331H6.89954C6.05271 19.9331 5.36621 19.2466 5.36621 18.3997V9.19974C5.36621 8.3529 6.05271 7.66641 6.89954 7.66641H7.66621V6.89974C7.66621 4.78265 9.38245 3.06641 11.4995 3.06641ZM6.89954 9.19974H7.66621H15.3329H16.0995V15.3331H6.89954V9.19974ZM6.89954 16.8664V18.3997H16.0995V16.8664H6.89954ZM13.7995 6.89974V7.66641H9.19954V6.89974C9.19954 5.62948 10.2293 4.59974 11.4995 4.59974C12.7698 4.59974 13.7995 5.62948 13.7995 6.89974Z" fill="white"/>
</mask>
<g mask="url(#mask0_14788_14403)">
<rect width="23" height="23" fill="white"/>
</g>
</svg>
