<svg width="30" height="30" viewBox="0 0 30 30" fill="none" xmlns="http://www.w3.org/2000/svg">
<path fill-rule="evenodd" clip-rule="evenodd" d="M16.6749 11.2552C17.3302 11.7241 18.1329 12 19 12C21.2091 12 23 10.2091 23 8C23 5.79086 21.2091 4 19 4C16.7909 4 15 5.79086 15 8C15 8.61262 15.1377 9.19307 15.3839 9.71208L11.7727 12.1169C11.0537 11.4253 10.0765 11 9 11C6.79086 11 5 12.7909 5 15C5 17.2091 6.79086 19 9 19C10.0751 19 11.0511 18.5758 11.7699 17.8858L15.3751 20.3065C15.1344 20.8208 15 21.3947 15 22C15 24.2091 16.7909 26 19 26C21.2091 26 23 24.2091 23 22C23 19.7909 21.2091 18 19 18C18.1248 18 17.3152 18.2811 16.6566 18.758L12.8221 16.1832C12.9377 15.8093 13 15.4119 13 15C13 14.5894 12.9381 14.1932 12.8232 13.8203L16.6749 11.2552ZM21 8C21 9.10457 20.1046 10 19 10C17.8954 10 17 9.10457 17 8C17 6.89543 17.8954 6 19 6C20.1046 6 21 6.89543 21 8ZM21 22C21 23.1046 20.1046 24 19 24C17.8954 24 17 23.1046 17 22C17 20.8954 17.8954 20 19 20C20.1046 20 21 20.8954 21 22ZM11 15C11 16.1046 10.1046 17 9 17C7.89543 17 7 16.1046 7 15C7 13.8954 7.89543 13 9 13C10.1046 13 11 13.8954 11 15Z" fill="white"/>
<mask id="mask0_14484_9624" style="mask-type:alpha" maskUnits="userSpaceOnUse" x="5" y="4" width="18" height="22">
<path fill-rule="evenodd" clip-rule="evenodd" d="M16.6749 11.2552C17.3302 11.7241 18.1329 12 19 12C21.2091 12 23 10.2091 23 8C23 5.79086 21.2091 4 19 4C16.7909 4 15 5.79086 15 8C15 8.61262 15.1377 9.19307 15.3839 9.71208L11.7727 12.1169C11.0537 11.4253 10.0765 11 9 11C6.79086 11 5 12.7909 5 15C5 17.2091 6.79086 19 9 19C10.0751 19 11.0511 18.5758 11.7699 17.8858L15.3751 20.3065C15.1344 20.8208 15 21.3947 15 22C15 24.2091 16.7909 26 19 26C21.2091 26 23 24.2091 23 22C23 19.7909 21.2091 18 19 18C18.1248 18 17.3152 18.2811 16.6566 18.758L12.8221 16.1832C12.9377 15.8093 13 15.4119 13 15C13 14.5894 12.9381 14.1932 12.8232 13.8203L16.6749 11.2552ZM21 8C21 9.10457 20.1046 10 19 10C17.8954 10 17 9.10457 17 8C17 6.89543 17.8954 6 19 6C20.1046 6 21 6.89543 21 8ZM21 22C21 23.1046 20.1046 24 19 24C17.8954 24 17 23.1046 17 22C17 20.8954 17.8954 20 19 20C20.1046 20 21 20.8954 21 22ZM11 15C11 16.1046 10.1046 17 9 17C7.89543 17 7 16.1046 7 15C7 13.8954 7.89543 13 9 13C10.1046 13 11 13.8954 11 15Z" fill="white"/>
</mask>
<g mask="url(#mask0_14484_9624)">
<rect width="30" height="30" fill="white"/>
</g>
</svg>
