<svg width="20" height="29" viewBox="0 0 20 29" fill="none" xmlns="http://www.w3.org/2000/svg">
<path d="M8.70096 12.25C9.27831 11.25 10.7217 11.25 11.299 12.25L16.4952 21.25C17.0725 22.25 16.3509 23.5 15.1962 23.5H4.80385C3.64915 23.5 2.92746 22.25 3.50481 21.25L8.70096 12.25Z" stroke="white"/>
<path d="M9.78 15H10.91L10.72 19.79H9.96L9.78 15ZM10.35 22.06C10.1633 22.06 10.0067 22 9.88 21.88C9.75333 21.7533 9.69 21.6 9.69 21.42C9.69 21.24 9.75333 21.09 9.88 20.97C10.0067 20.8433 10.1633 20.78 10.35 20.78C10.5367 20.78 10.69 20.8433 10.81 20.97C10.93 21.09 10.99 21.24 10.99 21.42C10.99 21.6 10.9267 21.7533 10.8 21.88C10.68 22 10.53 22.06 10.35 22.06Z" fill="white"/>
</svg>
