<svg width="40" height="30" viewBox="0 0 40 30" fill="none" xmlns="http://www.w3.org/2000/svg">
<path d="M15.43 2.61648C17.0474 2.43923 18.5687 2.15121 20.0901 2.15121C21.6114 2.15121 23.1401 2.43923 24.7501 2.61648C24.8092 2.51308 24.9274 2.34323 25.0086 2.15121C25.5772 0.954815 26.2788 0.511705 27.5195 0.873578C29.3511 1.40531 31.1457 2.06259 32.9329 2.73464C33.3538 2.89711 33.6862 3.32545 34.0185 3.67256C34.2622 3.92365 34.4616 4.21906 34.6315 4.52185C37.8735 10.1272 39.8011 16.087 39.4909 22.6524C39.417 24.2698 38.7745 25.4883 37.3049 26.2416C35.4143 27.2017 33.5754 28.2799 31.6331 29.1218C29.8089 29.9194 28.3984 29.1071 27.9627 27.1426C27.8888 26.825 28.2137 26.3081 28.5018 26.0422C28.8489 25.732 29.3658 25.6139 29.7794 25.3628C30.0527 25.2003 30.3998 24.9935 30.4736 24.735C30.577 24.3879 30.4441 23.9744 30.4145 23.5903C30.1487 23.6864 29.8163 23.7085 29.6169 23.8858C28.0291 25.2815 26.0794 25.6656 24.0854 25.9019C20.8286 26.2785 17.5791 26.249 14.3444 25.6213C12.9782 25.3554 11.7153 24.8606 10.6297 23.9522C10.4007 23.7602 10.061 23.7011 9.76561 23.583C9.77299 24.0335 9.62529 24.5873 9.83946 24.9049C10.0979 25.2889 10.6444 25.5105 11.0949 25.732C12.476 26.4115 12.5867 26.7586 11.7818 28.0731C10.8955 29.5206 10.2456 29.8677 8.70953 29.1661C6.46444 28.1396 4.2932 26.958 2.14412 25.7468C1.10281 25.1634 0.733551 24.0556 0.711396 22.9109C0.637544 18.8565 0.859099 14.8315 2.51338 11.043C3.41437 8.9751 4.35228 6.92203 5.33451 4.89111C5.97702 3.55439 7.01094 2.62386 8.48797 2.19552C9.75084 1.82626 10.9694 1.30192 12.2396 0.954815C13.9087 0.50432 14.5069 0.829267 15.2528 2.37277C15.3266 2.454 15.3857 2.54263 15.43 2.61648ZM16.9218 16.6483C16.9144 14.5878 15.3783 12.9188 13.473 12.9114C11.575 12.904 10.0093 14.5804 9.99455 16.6335C9.97239 18.7088 11.575 20.4369 13.4951 20.4147C15.3931 20.3852 16.9218 18.7088 16.9218 16.6483ZM23.2878 16.6852C23.3026 18.7457 24.8535 20.4147 26.7515 20.4073C28.6495 20.4 30.2077 18.7235 30.2151 16.6704C30.2225 14.5878 28.6199 12.8671 26.6998 12.904C24.787 12.9483 23.2731 14.6248 23.2878 16.6852Z" fill="white"/>
</svg>
