<svg width="40" height="30" viewBox="0 0 36 36" fill="none" xmlns="http://www.w3.org/2000/svg">
<path d="M18.1804 3.68923C22.87 3.68923 23.4313 3.68923 25.285 3.79262C26.4001 3.80001 27.5079 4.00679 28.5492 4.39821C30.0779 4.98902 31.2891 6.20019 31.8799 7.72892C32.2713 8.77022 32.4781 9.878 32.4855 10.9932C32.5741 12.8468 32.5889 13.4081 32.5889 18.0977C32.5889 22.7873 32.5889 23.3485 32.4855 25.2022C32.4781 26.3174 32.2713 27.4251 31.8799 28.4665C31.2891 29.9952 30.0779 31.2064 28.5492 31.7972C27.5079 32.1886 26.4001 32.3954 25.285 32.4027C23.4313 32.4914 22.8774 32.5061 18.1804 32.5061C13.4835 32.5061 12.9296 32.5061 11.0759 32.4027C9.96074 32.3954 8.85298 32.1886 7.81167 31.7972C6.28294 31.2064 5.07177 29.9952 4.48095 28.4665C4.08954 27.4251 3.88275 26.3174 3.87537 25.2022C3.78674 23.3485 3.77199 22.7873 3.77199 18.0977C3.77199 13.4081 3.77197 12.8468 3.87537 10.9932C3.88275 9.878 4.08954 8.77022 4.48095 7.72892C5.07177 6.20019 6.28294 4.98902 7.81167 4.39821C8.85298 4.00679 9.96074 3.80001 11.0759 3.79262C12.9296 3.704 13.4909 3.68923 18.1804 3.68923ZM18.1804 0.520996C13.4096 0.520996 12.8114 0.520996 10.9356 0.624388C9.47334 0.653929 8.03323 0.934565 6.66698 1.44414C4.28896 2.35252 2.40574 4.23573 1.49736 6.61376C0.987788 7.98001 0.70714 9.42012 0.677599 10.8824C0.596363 12.7582 0.574219 13.3564 0.574219 18.1272C0.574219 22.898 0.574207 23.4962 0.677599 25.3721C0.70714 26.8343 0.987788 28.2744 1.49736 29.6407C2.40574 32.0187 4.28896 33.9019 6.66698 34.8103C8.03323 35.3199 9.47334 35.6005 10.9356 35.6301C12.8114 35.7113 13.4096 35.7335 18.1804 35.7335C22.9513 35.7335 23.5495 35.7335 25.4253 35.6301C26.8876 35.6005 28.3277 35.3199 29.6939 34.8103C32.0719 33.9019 33.9552 32.0187 34.8635 29.6407C35.3731 28.2744 35.6537 26.8343 35.6833 25.3721C35.7645 23.4962 35.7867 22.898 35.7867 18.1272C35.7867 13.3564 35.7867 12.7582 35.6833 10.8824C35.6537 9.42012 35.3731 7.98001 34.8635 6.61376C33.9552 4.23573 32.0719 2.35252 29.6939 1.44414C28.3277 0.934565 26.8876 0.653929 25.4253 0.624388C23.5495 0.543151 22.9513 0.520996 18.1804 0.520996Z" fill="white"/>
<path d="M18.1799 9.06567C13.195 9.06567 9.15527 13.1054 9.15527 18.0903C9.15527 23.0753 13.195 27.115 18.1799 27.115C23.1649 27.115 27.2046 23.0753 27.2046 18.0903C27.2046 13.1054 23.1649 9.06567 18.1799 9.06567ZM18.1799 23.9468C14.9452 23.9468 12.3235 21.325 12.3235 18.0903C12.3235 14.8556 14.9452 12.2339 18.1799 12.2339C21.4146 12.2339 24.0364 14.8556 24.0364 18.0903C24.0364 21.325 21.4146 23.9468 18.1799 23.9468Z" fill="white"/>
<path d="M27.5594 10.8232C28.7259 10.8232 29.6716 9.87755 29.6716 8.71103C29.6716 7.54452 28.7259 6.59888 27.5594 6.59888C26.3929 6.59888 25.4473 7.54452 25.4473 8.71103C25.4473 9.87755 26.3929 10.8232 27.5594 10.8232Z" fill="white"/>
</svg>
