<svg width="32" height="30" viewBox="0 0 32 30" fill="none" xmlns="http://www.w3.org/2000/svg">
<path fill-rule="evenodd" clip-rule="evenodd" d="M14.4288 20C10.2548 20 6.87109 16.6421 6.87109 12.5C6.87109 8.35786 10.2548 5 14.4288 5C18.6028 5 21.9866 8.35786 21.9866 12.5C21.9866 14.4805 21.213 16.2816 19.9494 17.6222L23.7811 22.3753C24.1288 22.8066 24.0583 23.4359 23.6238 23.7809C23.1892 24.1259 22.555 24.056 22.2074 23.6247L18.3895 18.8888C17.2378 19.5935 15.8812 20 14.4288 20ZM14.4288 18C17.4898 18 19.9712 15.5376 19.9712 12.5C19.9712 9.46243 17.4898 7 14.4288 7C11.3679 7 8.88649 9.46243 8.88649 12.5C8.88649 15.5376 11.3679 18 14.4288 18Z" fill="black"/>
<mask id="mask0_14184_6700" style="mask-type:alpha" maskUnits="userSpaceOnUse" x="6" y="5" width="19" height="19">
<path fill-rule="evenodd" clip-rule="evenodd" d="M14.4288 20C10.2548 20 6.87109 16.6421 6.87109 12.5C6.87109 8.35786 10.2548 5 14.4288 5C18.6028 5 21.9866 8.35786 21.9866 12.5C21.9866 14.4805 21.213 16.2816 19.9494 17.6222L23.7811 22.3753C24.1288 22.8066 24.0583 23.4359 23.6238 23.7809C23.1892 24.1259 22.555 24.056 22.2074 23.6247L18.3895 18.8888C17.2378 19.5935 15.8812 20 14.4288 20ZM14.4288 18C17.4898 18 19.9712 15.5376 19.9712 12.5C19.9712 9.46243 17.4898 7 14.4288 7C11.3679 7 8.88649 9.46243 8.88649 12.5C8.88649 15.5376 11.3679 18 14.4288 18Z" fill="white"/>
</mask>
<g mask="url(#mask0_14184_6700)">
<rect x="0.825195" width="30.2309" height="30" fill="#DADADA"/>
</g>
</svg>
