<svg width="24" height="28" viewBox="0 0 24 28" fill="none" xmlns="http://www.w3.org/2000/svg">
<path d="M10.4912 0C10.6095 0.0301429 10.6349 0.0328831 10.6574 0.0438442C12.9362 1.16735 13.0151 1.17009 12.9024 3.65825C12.8461 4.87767 13.1898 5.6422 14.3644 6.06968C14.7531 6.21217 15.0996 6.46428 15.6291 6.75475C15.6291 6.01488 15.6291 5.39284 15.6291 4.77354C15.6291 4.1652 15.6291 3.5596 15.6291 2.82521C16.4263 3.26913 17.1249 3.61989 17.7728 4.04737C17.9559 4.16794 18.0685 4.50773 18.077 4.75161C18.1108 5.70249 18.077 6.6561 18.1052 7.60697C18.1108 7.83441 18.1897 8.16324 18.353 8.26737C19.0967 8.74144 19.8826 9.15248 20.7868 9.66216C20.7868 8.29751 20.7868 7.08358 20.7868 5.71893C21.6206 6.18751 22.3333 6.56293 23.0093 6.98767C23.1614 7.08358 23.2656 7.36308 23.2684 7.56038C23.2825 11.8571 23.2853 16.1511 23.2628 20.4478C23.2628 20.678 23.0994 21.0096 22.9079 21.1165C18.846 23.4238 14.77 25.7064 10.6968 27.989C10.6574 28.011 10.5983 27.9973 10.494 28.0027C10.4912 18.6804 10.4912 9.36896 10.4912 0Z" fill="#443462"/>
<path d="M7.7481 26.5997C6.92276 26.1421 6.22137 25.7941 5.57631 25.3666C5.39603 25.246 5.30025 24.8925 5.30025 24.6432C5.28335 18.0857 5.28899 11.531 5.28899 4.97358C5.28899 4.30769 5.28899 3.64455 5.28899 2.84165C6.09742 3.28831 6.82417 3.64181 7.48331 4.08847C7.67204 4.21726 7.73401 4.61734 7.73683 4.89137C7.75092 10.8323 7.7481 16.7704 7.7481 22.7113C7.7481 23.9444 7.7481 25.1775 7.7481 26.5997Z" fill="#443462"/>
<path d="M2.48579 23.6512C1.72806 23.2237 0.998497 22.8319 0.294285 22.4044C0.175977 22.3331 0.108373 22.1002 0.108373 21.9413C0.0971055 16.5923 0.0999224 11.2406 0.0999224 5.72167C0.930893 6.19573 1.68018 6.59855 2.39565 7.04796C2.52805 7.13016 2.5872 7.40419 2.5872 7.59053C2.59565 12.8381 2.59002 18.0885 2.58438 23.3361C2.58438 23.4046 2.54213 23.4731 2.48579 23.6512Z" fill="#443462"/>
</svg>
