<svg width="23" height="28" viewBox="0 0 23 28" fill="none" xmlns="http://www.w3.org/2000/svg">
<g clip-path="url(#clip0_14189_6806)">
<path d="M10.3125 0C10.4299 0.0301429 10.4551 0.0328831 10.4774 0.0438442C12.7388 1.16735 12.8171 1.17009 12.7053 3.65825C12.6494 4.87767 12.9904 5.6422 14.1561 6.06968C14.5418 6.21217 14.8857 6.46428 15.4112 6.75475C15.4112 6.01488 15.4112 5.39284 15.4112 4.77354C15.4112 4.1652 15.4112 3.5596 15.4112 2.82521C16.2023 3.26913 16.8955 3.61989 17.5384 4.04737C17.7201 4.16794 17.8319 4.50773 17.8403 4.75161C17.8739 5.70249 17.8403 6.6561 17.8683 7.60697C17.8739 7.83441 17.9521 8.16324 18.1143 8.26737C18.8522 8.74144 19.6321 9.15248 20.5294 9.66216C20.5294 8.29751 20.5294 7.08358 20.5294 5.71893C21.3569 6.18751 22.0641 6.56293 22.735 6.98767C22.8859 7.08358 22.9893 7.36308 22.9921 7.56038C23.0061 11.8571 23.0089 16.1511 22.9865 20.4478C22.9865 20.678 22.8244 21.0096 22.6343 21.1165C18.6035 23.4238 14.5586 25.7064 10.5166 27.989C10.4774 28.011 10.4187 27.9973 10.3153 28.0027C10.3125 18.6804 10.3125 9.36896 10.3125 0Z" fill="white"/>
<path d="M7.58966 26.5996C6.77063 26.142 6.07459 25.794 5.43446 25.3665C5.25555 25.2459 5.16051 24.8924 5.16051 24.6431C5.14374 18.0856 5.14933 11.5309 5.14933 4.97348C5.14933 4.30759 5.14933 3.64445 5.14933 2.84155C5.95159 3.28822 6.67279 3.64171 7.3269 4.08837C7.51419 4.21716 7.57568 4.61724 7.57848 4.89127C7.59246 10.8322 7.58966 16.7703 7.58966 22.7112C7.58966 23.9443 7.58966 25.1774 7.58966 26.5996Z" fill="white"/>
<path d="M2.36796 23.6512C1.61601 23.2237 0.892022 22.8319 0.193189 22.4044C0.0757846 22.3332 0.00869659 22.1002 0.00869659 21.9413C-0.00248474 16.5923 0.000310593 11.2406 0.000310593 5.72168C0.824934 6.19575 1.56849 6.59856 2.27851 7.04797C2.40989 7.13017 2.46859 7.4042 2.46859 7.59054C2.47698 12.8381 2.47139 18.0885 2.46579 23.3361C2.46579 23.4046 2.42386 23.4731 2.36796 23.6512Z" fill="white"/>
</g>
<defs>
<clipPath id="clip0_14189_6806">
<rect width="23" height="28" fill="white"/>
</clipPath>
</defs>
</svg>
