<svg width="31" height="31" viewBox="0 0 31 31" fill="none" xmlns="http://www.w3.org/2000/svg">
<g clip-path="url(#clip0_14479_9783)">
<path d="M30.8536 0.145937H0.145508V30.8541H30.8536V0.145937Z" stroke="url(#paint0_linear_14479_9783)" stroke-miterlimit="10"/>
<path d="M20.4463 7.7376V19.4097H17.4283C17.1073 19.4097 16.8475 19.1499 16.8475 18.8288V8.63657H7.37616V19.4097H4.20056C3.96706 19.4097 3.77734 19.2199 3.77734 18.9864V8.2367V5.44054V5.03776H4.18013H7.37616H16.8475H16.8738H17.7465C19.2379 5.03776 20.4463 6.24612 20.4463 7.7376ZM26.599 12.0223H22.9973V19.4097H26.5961V12.0223H26.599ZM14.0397 10.2973H10.4379V19.4097H14.0397V10.2973ZM24.7981 5.03776C23.8525 5.03776 23.0878 5.80247 23.0878 6.74814C23.0878 7.69381 23.8525 8.45853 24.7981 8.45853C25.7438 8.45853 26.5085 7.69381 26.5085 6.74814C26.5085 5.80247 25.7438 5.03776 24.7981 5.03776Z" fill="url(#paint1_linear_14479_9783)"/>
<path d="M4.05664 22.0044C4.05664 21.8964 4.13253 21.8118 4.24344 21.8118C4.35143 21.8118 4.43608 21.8877 4.43608 22.0044V22.5444C4.69001 22.1358 5.0461 21.7476 5.74951 21.7476C6.43834 21.7476 6.86156 22.1416 7.08046 22.5969C7.33731 22.1562 7.76053 21.7476 8.50481 21.7476C9.44173 21.7476 10.0196 22.4043 10.0196 23.3937V25.6208C10.0196 25.7375 9.94375 25.8134 9.83284 25.8134C9.72193 25.8134 9.6402 25.7375 9.6402 25.6208V23.4404C9.6402 22.5911 9.19947 22.0949 8.4727 22.0949C7.80723 22.0949 7.22932 22.6057 7.22932 23.4871V25.6208C7.22932 25.7375 7.15343 25.8134 7.04252 25.8134C6.9316 25.8134 6.84988 25.7375 6.84988 25.6208V23.4171C6.84988 22.5969 6.40039 22.0949 5.69698 22.0949C4.99356 22.0949 4.43608 22.7137 4.43608 23.5105V25.6208C4.43608 25.7375 4.35727 25.8134 4.24928 25.8134C4.14128 25.8134 4.05664 25.7375 4.05664 25.6208V22.0044ZM14.6196 25.8776C13.5834 25.8776 12.6874 25.0516 12.6874 23.8199V23.8053C12.6874 22.6611 13.49 21.7476 14.5583 21.7476C15.6645 21.7476 16.3679 22.6611 16.3679 23.7878C16.3679 23.8812 16.2745 23.9658 16.1811 23.9658H13.0872C13.1573 24.9465 13.8607 25.5186 14.6342 25.5186C15.1975 25.5186 15.5915 25.288 15.9097 24.9786C15.9418 24.9465 15.9797 24.9232 16.0323 24.9232C16.1315 24.9232 16.2191 24.9991 16.2191 25.1012C16.2191 25.1392 16.2045 25.1859 16.1578 25.2326C15.7725 25.6208 15.3318 25.8776 14.6196 25.8776ZM15.9593 23.6272C15.9038 22.8304 15.4485 22.0949 14.5437 22.0949C13.7644 22.0949 13.1602 22.7516 13.0902 23.6272H15.9593ZM19.2312 24.7714V22.1883H18.8051C18.7117 22.1883 18.627 22.1037 18.627 22.0103C18.627 21.9169 18.7117 21.841 18.8051 21.841H19.2312V20.7435C19.2312 20.6355 19.3071 20.5509 19.418 20.5509C19.5289 20.5509 19.6106 20.6355 19.6106 20.7435V21.841H20.8482C20.9416 21.841 21.0262 21.9256 21.0262 22.019C21.0262 22.1124 20.9416 22.1883 20.8482 22.1883H19.6106V24.7305C19.6106 25.2939 19.9434 25.4952 20.3987 25.4952C20.6701 25.4952 20.7927 25.4194 20.8482 25.4194C20.9328 25.4194 21.0175 25.4952 21.0175 25.5886C21.0175 25.6645 20.9708 25.72 20.8949 25.7521C20.7402 25.8046 20.5621 25.8513 20.3374 25.8513C19.7245 25.8543 19.2312 25.5215 19.2312 24.7714ZM23.335 24.6401V24.6255C23.335 23.8053 24.0384 23.3412 25.0599 23.3412C25.6087 23.3412 25.9881 23.4113 26.3675 23.5105V23.3412C26.3675 22.5444 25.8801 22.1358 25.0687 22.1358C24.6367 22.1358 24.2719 22.2438 23.9479 22.3985C23.9158 22.4131 23.8866 22.4218 23.8632 22.4218C23.7698 22.4218 23.6852 22.3372 23.6852 22.2438C23.6852 22.1504 23.7553 22.0891 23.7932 22.0745C24.196 21.8964 24.59 21.7797 25.092 21.7797C25.6262 21.7797 26.0494 21.9256 26.3354 22.2117C26.5981 22.4743 26.7382 22.8392 26.7382 23.3237V25.6208C26.7382 25.7375 26.6623 25.8134 26.5514 25.8134C26.4434 25.8134 26.3646 25.7375 26.3646 25.6208V25.1246C26.0932 25.504 25.6057 25.8747 24.8556 25.8747C24.1259 25.8776 23.335 25.4602 23.335 24.6401ZM26.3734 24.3073V23.8578C26.0406 23.7732 25.5999 23.6798 25.0366 23.6798C24.2018 23.6798 23.7377 24.0505 23.7377 24.5992V24.6138C23.7377 25.1859 24.2777 25.5186 24.8819 25.5186C25.6875 25.5215 26.3734 25.0282 26.3734 24.3073Z" fill="url(#paint2_linear_14479_9783)"/>
</g>
<defs>
<linearGradient id="paint0_linear_14479_9783" x1="-0.000429478" y1="15.5005" x2="31.0006" y2="15.5005" gradientUnits="userSpaceOnUse">
<stop stop-color="#3C3795"/>
<stop offset="0.5056" stop-color="#A53594"/>
<stop offset="1" stop-color="#DA2128"/>
</linearGradient>
<linearGradient id="paint1_linear_14479_9783" x1="3.77635" y1="12.2244" x2="26.5976" y2="12.2244" gradientUnits="userSpaceOnUse">
<stop stop-color="#3C3795"/>
<stop offset="0.5056" stop-color="#A53594"/>
<stop offset="1" stop-color="#DA2128"/>
</linearGradient>
<linearGradient id="paint2_linear_14479_9783" x1="4.05711" y1="23.2139" x2="26.7378" y2="23.2139" gradientUnits="userSpaceOnUse">
<stop stop-color="#3C3795"/>
<stop offset="0.5056" stop-color="#A53594"/>
<stop offset="1" stop-color="#DA2128"/>
</linearGradient>
<clipPath id="clip0_14479_9783">
<rect width="31" height="31" fill="white"/>
</clipPath>
</defs>
</svg>
