<svg width="31" height="30" viewBox="0 0 31 30" fill="none" xmlns="http://www.w3.org/2000/svg">
<path fill-rule="evenodd" clip-rule="evenodd" d="M22.8388 9H24.8542C25.9672 9 26.8696 9.89543 26.8696 11V14V20V23C26.8696 24.1046 25.9672 25 24.8542 25H6.71559C5.60252 25 4.7002 24.1046 4.7002 23V7C4.7002 5.89543 5.60252 5 6.71559 5H20.8234C21.9364 5 22.8388 5.89543 22.8388 7V9ZM24.8542 11V13H16.7926C16.236 13 15.7849 13.4477 15.7849 14V20C15.7849 20.5523 16.236 21 16.7926 21H24.8542V23H6.71559V11H20.8234H21.8311H24.8542ZM17.8003 19H24.8542V15H17.8003V19ZM6.71559 9H20.8234V7H6.71559V9ZM20.8234 17C20.8234 17.5523 20.3722 18 19.8157 18C19.2591 18 18.808 17.5523 18.808 17C18.808 16.4477 19.2591 16 19.8157 16C20.3722 16 20.8234 16.4477 20.8234 17Z" fill="black"/>
<mask id="mask0_14184_6738" style="mask-type:alpha" maskUnits="userSpaceOnUse" x="4" y="5" width="23" height="20">
<path fill-rule="evenodd" clip-rule="evenodd" d="M22.8388 9H24.8542C25.9672 9 26.8696 9.89543 26.8696 11V14V20V23C26.8696 24.1046 25.9672 25 24.8542 25H6.71559C5.60252 25 4.7002 24.1046 4.7002 23V7C4.7002 5.89543 5.60252 5 6.71559 5H20.8234C21.9364 5 22.8388 5.89543 22.8388 7V9ZM24.8542 11V13H16.7926C16.236 13 15.7849 13.4477 15.7849 14V20C15.7849 20.5523 16.236 21 16.7926 21H24.8542V23H6.71559V11H20.8234H21.8311H24.8542ZM17.8003 19H24.8542V15H17.8003V19ZM6.71559 9H20.8234V7H6.71559V9ZM20.8234 17C20.8234 17.5523 20.3722 18 19.8157 18C19.2591 18 18.808 17.5523 18.808 17C18.808 16.4477 19.2591 16 19.8157 16C20.3722 16 20.8234 16.4477 20.8234 17Z" fill="white"/>
</mask>
<g mask="url(#mask0_14184_6738)">
<rect x="0.668945" width="30.231" height="30" fill="#0880AE"/>
</g>
</svg>
