<svg width="36" height="30" viewBox="0 0 36 30" fill="none" xmlns="http://www.w3.org/2000/svg">
<path d="M35.4001 3.97264C34.0856 4.55607 32.6898 4.9401 31.2571 5.10996C32.7636 4.20897 33.8936 2.79102 34.4327 1.11458C33.0147 1.95649 31.4639 2.54731 29.8465 2.86487C27.1214 -0.0375008 22.55 -0.177819 19.6476 2.54731C18.2001 3.90618 17.373 5.81155 17.373 7.79816C17.373 8.35205 17.4394 8.90593 17.5576 9.44505C11.7602 9.16441 6.36168 6.43929 2.68386 1.94911C0.778492 5.23551 1.75333 9.43028 4.89941 11.5498C3.75471 11.5129 2.63217 11.2027 1.62779 10.6488V10.7448C1.62779 14.1789 4.05012 17.133 7.41776 17.8124C6.35429 18.1005 5.23913 18.1374 4.1609 17.938C5.1062 20.8773 7.80917 22.8934 10.8962 22.9451C8.3409 24.9465 5.18744 26.0247 1.94535 26.0174C1.36931 26.0174 0.793267 25.9804 0.224609 25.914C3.52578 28.0409 7.37345 29.1708 11.3024 29.1561C24.5957 29.1561 31.8257 18.1669 31.8257 8.64007C31.8257 8.32251 31.8257 8.01233 31.8257 7.70215C33.2289 6.67561 34.4401 5.41275 35.4001 3.97264Z" fill="white"/>
</svg>
