<svg width="31" height="30" viewBox="0 0 31 30" fill="none" xmlns="http://www.w3.org/2000/svg">
<path fill-rule="evenodd" clip-rule="evenodd" d="M15.2841 14C12.5015 14 10.2456 11.7614 10.2456 9C10.2456 6.23858 12.5015 4 15.2841 4C18.0668 4 20.3226 6.23858 20.3226 9C20.3226 11.7614 18.0668 14 15.2841 14ZM15.2841 12C16.9537 12 18.3072 10.6569 18.3072 9C18.3072 7.34315 16.9537 6 15.2841 6C13.6145 6 12.261 7.34315 12.261 9C12.261 10.6569 13.6145 12 15.2841 12ZM7.20005 24.9998C7.75644 25.0121 8.21757 24.5745 8.22999 24.0223C8.35344 18.5373 10.6262 17 15.2841 17C20.2021 17 22.4563 18.5181 22.3334 23.9777C22.321 24.5298 22.762 24.9874 23.3184 24.9998C23.8748 25.0121 24.3359 24.5745 24.3483 24.0223C24.4955 17.4819 21.3785 15 15.2841 15C9.46335 15 6.36173 17.4627 6.2151 23.9777C6.20267 24.5298 6.64365 24.9874 7.20005 24.9998Z" fill="black"/>
<mask id="mask0_14438_6722" style="mask-type:alpha" maskUnits="userSpaceOnUse" x="6" y="4" width="19" height="21">
<path fill-rule="evenodd" clip-rule="evenodd" d="M15.2841 14C12.5015 14 10.2456 11.7614 10.2456 9C10.2456 6.23858 12.5015 4 15.2841 4C18.0668 4 20.3226 6.23858 20.3226 9C20.3226 11.7614 18.0668 14 15.2841 14ZM15.2841 12C16.9537 12 18.3072 10.6569 18.3072 9C18.3072 7.34315 16.9537 6 15.2841 6C13.6145 6 12.261 7.34315 12.261 9C12.261 10.6569 13.6145 12 15.2841 12ZM7.20005 24.9998C7.75644 25.0121 8.21757 24.5745 8.22999 24.0223C8.35344 18.5373 10.6262 17 15.2841 17C20.2021 17 22.4563 18.5181 22.3334 23.9777C22.321 24.5298 22.762 24.9874 23.3184 24.9998C23.8748 25.0121 24.3359 24.5745 24.3483 24.0223C24.4955 17.4819 21.3785 15 15.2841 15C9.46335 15 6.36173 17.4627 6.2151 23.9777C6.20267 24.5298 6.64365 24.9874 7.20005 24.9998Z" fill="white"/>
</mask>
<g mask="url(#mask0_14438_6722)">
<rect x="0.168945" width="30.231" height="30" fill="#0880AE"/>
</g>
</svg>
