<svg width="30" height="18" viewBox="0 0 30 18" fill="none" xmlns="http://www.w3.org/2000/svg">
<g clip-path="url(#clip0_14484_9625)">
<path d="M0.00248931 8.96967C-0.0248733 8.61138 0.177189 8.33224 0.419244 8.07602C1.07805 7.37819 1.71792 6.65952 2.4083 5.99501C4.06479 4.39937 5.88336 3.00994 7.91872 1.91424C8.99849 1.33305 10.1246 0.853943 11.3054 0.516482C12.3978 0.204018 13.507 -0.0105405 14.6478 -0.000125042C15.3487 0.00612423 16.0517 0.022789 16.7463 0.108196C17.9124 0.249846 19.0343 0.574808 20.1246 1.00809C22.2904 1.86841 24.2311 3.1016 25.9991 4.59309C26.8368 5.30134 27.6325 6.05959 28.4197 6.822C28.8869 7.27612 29.3079 7.77814 29.7352 8.27183C30.0909 8.6822 30.0888 9.29255 29.7394 9.70917C28.9417 10.6653 28.0703 11.5527 27.1547 12.3984C26.1759 13.3025 25.1361 14.1337 24.0332 14.8836C22.4778 15.9376 20.8255 16.8063 19.0195 17.3687C17.8029 17.7457 16.5653 17.9728 15.2856 17.9978C14.3974 18.0145 13.5196 17.9436 12.6482 17.7832C10.3014 17.352 8.20076 16.3563 6.22855 15.0627C4.9404 14.217 3.74486 13.2546 2.62509 12.2005C1.79159 11.4173 0.998069 10.5966 0.261382 9.72375C0.0803676 9.50919 -0.0101396 9.26755 0.00248931 8.96967ZM14.8204 1.03101C14.069 1.02476 13.2439 1.13724 12.4293 1.32264C11.036 1.63927 9.72255 2.16629 8.47018 2.8433C7.15256 3.55363 5.92756 4.39937 4.77201 5.34301C3.4586 6.4158 2.24833 7.58858 1.1433 8.8676C1.057 8.9655 1.06332 9.03425 1.14962 9.1259C1.63372 9.64459 2.10099 10.1799 2.60194 10.682C3.61646 11.7027 4.70466 12.6422 5.87073 13.4921C7.6935 14.8211 9.64467 15.9064 11.84 16.5125C12.7724 16.7708 13.7238 16.925 14.692 16.9521C15.8139 16.9833 16.9126 16.8375 17.9966 16.5542C19.1332 16.2563 20.2151 15.823 21.2549 15.2856C22.6756 14.5482 23.989 13.6504 25.2245 12.6401C26.5358 11.5694 27.7461 10.3966 28.8511 9.11757C28.9374 9.01758 28.929 8.95092 28.8448 8.86135C28.3797 8.36349 27.9419 7.83855 27.4514 7.36777C26.7084 6.65744 25.9507 5.9596 25.1593 5.30343C23.4291 3.87026 21.5432 2.6829 19.4237 1.88507C17.9671 1.3393 16.4706 1.01851 14.8204 1.03101Z" fill="white"/>
<path d="M21.1556 9.00518C21.1451 12.3485 18.4446 15.0711 15.0264 15.0941C11.5871 15.1149 8.82558 12.3673 8.834 8.96769C8.84453 5.63891 11.5534 2.87881 15.0285 2.89756C18.4509 2.91422 21.1556 5.64724 21.1556 9.00518ZM20.1053 9.01768C20.0737 6.22634 17.8532 3.95785 14.9969 3.9516C12.2438 3.94535 9.90957 6.11385 9.89483 8.98227C9.8822 11.7465 12.1175 14.0254 14.9864 14.0379C17.71 14.0504 20.0359 11.909 20.1053 9.01768Z" fill="white"/>
</g>
<defs>
<clipPath id="clip0_14484_9625">
<rect width="30" height="18" fill="white"/>
</clipPath>
</defs>
</svg>
